<svg xmlns="http://www.w3.org/2000/svg" width="966" height="116" viewBox="32 540 966 116">
<rect x="32" y="540" width="966" height="116" fill="#FFFFFF"/>
<g id="supervised_path"><text x="112" y="580" font-family="Arial" font-size="14" font-weight="bold" font-style="normal" text-anchor="middle" fill="#111111">Sparse labels</text><text x="112" y="603" font-family="Arial" font-size="12" font-weight="normal" font-style="normal" text-anchor="middle" fill="#111111">(one cell)</text><circle cx="202" cy="579" r="7" fill="#FFFFFF" stroke="#B5B5B5" stroke-width="1"/><circle cx="220" cy="579" r="7" fill="#F27919" stroke="#A95A14" stroke-width="1"/><circle cx="238" cy="579" r="7" fill="#FFFFFF" stroke="#B5B5B5" stroke-width="1"/><circle cx="256" cy="579" r="7" fill="#FFFFFF" stroke="#B5B5B5" stroke-width="1"/><circle cx="274" cy="579" r="7" fill="#FFFFFF" stroke="#B5B5B5" stroke-width="1"/><circle cx="292" cy="579" r="7" fill="#FFFFFF" stroke="#B5B5B5" stroke-width="1"/><circle cx="310" cy="579" r="7" fill="#FFFFFF" stroke="#B5B5B5" stroke-width="1"/><circle cx="328" cy="579" r="7" fill="#FFFFFF" stroke="#B5B5B5" stroke-width="1"/><circle cx="346" cy="579" r="7" fill="#FFFFFF" stroke="#B5B5B5" stroke-width="1"/><circle cx="364" cy="579" r="7" fill="#F27919" stroke="#A95A14" stroke-width="1"/><circle cx="382" cy="579" r="7" fill="#FFFFFF" stroke="#B5B5B5" stroke-width="1"/><circle cx="400" cy="579" r="7" fill="#FFFFFF" stroke="#B5B5B5" stroke-width="1"/><circle cx="418" cy="579" r="7" fill="#FFFFFF" stroke="#B5B5B5" stroke-width="1"/><circle cx="436" cy="579" r="7" fill="#FFFFFF" stroke="#B5B5B5" stroke-width="1"/><circle cx="454" cy="579" r="7" fill="#FFFFFF" stroke="#B5B5B5" stroke-width="1"/><circle cx="472" cy="579" r="7" fill="#FFFFFF" stroke="#B5B5B5" stroke-width="1"/><circle cx="490" cy="579" r="7" fill="#FFFFFF" stroke="#B5B5B5" stroke-width="1"/><circle cx="508" cy="579" r="7" fill="#F27919" stroke="#A95A14" stroke-width="1"/><circle cx="526" cy="579" r="7" fill="#FFFFFF" stroke="#B5B5B5" stroke-width="1"/><circle cx="544" cy="579" r="7" fill="#FFFFFF" stroke="#B5B5B5" stroke-width="1"/><circle cx="562" cy="579" r="7" fill="#FFFFFF" stroke="#B5B5B5" stroke-width="1"/><circle cx="580" cy="579" r="7" fill="#FFFFFF" stroke="#B5B5B5" stroke-width="1"/><circle cx="598" cy="579" r="7" fill="#F27919" stroke="#A95A14" stroke-width="1"/><circle cx="616" cy="579" r="7" fill="#FFFFFF" stroke="#B5B5B5" stroke-width="1"/><circle cx="634" cy="579" r="7" fill="#FFFFFF" stroke="#B5B5B5" stroke-width="1"/><circle cx="652" cy="579" r="7" fill="#FFFFFF" stroke="#B5B5B5" stroke-width="1"/><circle cx="670" cy="579" r="7" fill="#FFFFFF" stroke="#B5B5B5" stroke-width="1"/><line x1="195" y1="606" x2="690" y2="606" stroke="#333333" stroke-width="1.0" stroke-linecap="round"/><line x1="219" y1="602" x2="219" y2="611" stroke="#333333" stroke-width="1.0" stroke-linecap="round"/><line x1="340" y1="602" x2="340" y2="611" stroke="#333333" stroke-width="1.0" stroke-linecap="round"/><line x1="460" y1="602" x2="460" y2="611" stroke="#333333" stroke-width="1.0" stroke-linecap="round"/><line x1="580" y1="602" x2="580" y2="611" stroke="#333333" stroke-width="1.0" stroke-linecap="round"/><line x1="682" y1="602" x2="682" y2="611" stroke="#333333" stroke-width="1.0" stroke-linecap="round"/><text x="219" y="627" font-family="Arial" font-size="10" font-weight="normal" font-style="normal" text-anchor="middle" fill="#111111">1</text><text x="340" y="627" font-family="Arial" font-size="10" font-weight="normal" font-style="normal" text-anchor="middle" fill="#111111">10</text><text x="460" y="627" font-family="Arial" font-size="10" font-weight="normal" font-style="normal" text-anchor="middle" fill="#111111">20</text><text x="580" y="627" font-family="Arial" font-size="10" font-weight="normal" font-style="normal" text-anchor="middle" fill="#111111">30</text><text x="682" y="627" font-family="Arial" font-size="10" font-weight="normal" font-style="normal" text-anchor="middle" fill="#111111">40</text><text x="445" y="649" font-family="Arial" font-size="11" font-weight="normal" font-style="normal" text-anchor="middle" fill="#111111">cycle index</text><rect x="768" y="541" width="168" height="90" fill="#FFF3EC" stroke="none" stroke-width="0" rx="10" /><text x="852" y="568" font-family="Arial" font-size="14" font-weight="bold" font-style="normal" text-anchor="middle" fill="#111111">Masked</text><text x="852" y="588" font-family="Arial" font-size="14" font-weight="bold" font-style="normal" text-anchor="middle" fill="#111111">supervision</text><text x="852" y="616" font-family="Times New Roman" font-size="20" font-weight="normal" font-style="italic" text-anchor="middle" fill="#111111">ℒₛᵤₚ</text><rect x="768.75" y="541.75" width="166.5" height="88.5" fill="none" stroke="#E45F13" stroke-width="1.5" rx="9" /><polyline points="706,579 756,579" fill="none" stroke="#E45F13" stroke-width="1.6" stroke-linecap="round" stroke-linejoin="round"/><polygon points="756,579 748,575.0 748,583.0" fill="#E45F13" stroke="none"/></g>
</svg>